{
  "accessors": [
    {
      "bufferView": 2,
      "componentType": 5126,
      "count": 28436,
      "max": [
        0.5762190222740173,
        0.4916529953479767,
        1.7867790460586548
      ],
      "min": [
        -0.9329630136489868,
        -0.5770919919013977,
        0.0013559999642893672
      ],
      "type": "VEC3"
    },
    {
      "bufferView": 2,
      "byteOffset": 341232,
      "componentType": 5126,
      "count": 28436,
      "max": [
        0.9998213648796082,
        0.9998185038566589,
        0.9998399615287781
      ],
      "min": [
        -0.9996981024742126,
        -0.9999563694000244,
        -1.0
      ],
      "type": "VEC3"
    },
    {
      "bufferView": 3,
      "componentType": 5126,
      "count": 28436,
      "max": [
        0.9997932314872742,
        0.9999963045120239,
        0.9999999403953552,
        1.0
      ],
      "min": [
        -0.999946653842926,
        -0.9999794960021973,
        -0.9997576475143433,
        -1.0
      ],
      "type": "VEC4"
    },
    {
      "bufferView": 1,
      "componentType": 5126,
      "count": 28436,
      "max": [
        0.9971629977226257,
        0.9980469942092896
      ],
      "min": [
        0.0019529999699443579,
        0.0019529999699443579
      ],
      "type": "VEC2"
    },
    {
      "bufferView": 0,
      "componentType": 5125,
      "count": 152922,
      "type": "SCALAR"
    }
  ],
  "asset": {
    "extras": {
      "author": "Rigsters (https://sketchfab.com/rigsters)",
      "license": "CC-BY-4.0 (http://creativecommons.org/licenses/by/4.0/)",
      "source": "https://sketchfab.com/3d-models/the-thinker-by-auguste-rodin-08a1e693c9674a3292dec2298b09e0ae",
      "title": "The Thinker by Auguste Rodin"
    },
    "generator": "Sketchfab-12.68.0",
    "version": "2.0"
  },
  "bufferViews": [
    {
      "buffer": 0,
      "byteLength": 611688,
      "name": "floatBufferViews",
      "target": 34963
    },
    {
      "buffer": 0,
      "byteLength": 227488,
      "byteOffset": 611688,
      "byteStride": 8,
      "name": "floatBufferViews",
      "target": 34962
    },
    {
      "buffer": 0,
      "byteLength": 682464,
      "byteOffset": 839176,
      "byteStride": 12,
      "name": "floatBufferViews",
      "target": 34962
    },
    {
      "buffer": 0,
      "byteLength": 454976,
      "byteOffset": 1521640,
      "byteStride": 16,
      "name": "floatBufferViews",
      "target": 34962
    }
  ],
  "buffers": [
    {
      "byteLength": 1976616,
      "uri": "scene.bin"
    }
  ],
  "images": [
    {
      "uri": "textures/material_0_baseColor.jpeg"
    },
    {
      "uri": "textures/material_0_metallicRoughness.png"
    },
    {
      "uri": "textures/material_0_normal.png"
    }
  ],
  "materials": [
    {
      "doubleSided": true,
      "name": "material_0",
      "normalTexture": {
        "index": 2
      },
      "pbrMetallicRoughness": {
        "baseColorTexture": {
          "index": 0
        },
        "metallicFactor": 0.0,
        "metallicRoughnessTexture": {
          "index": 1
        }
      }
    }
  ],
  "meshes": [
    {
      "name": "Object_0",
      "primitives": [
        {
          "attributes": {
            "NORMAL": 1,
            "POSITION": 0,
            "TANGENT": 2,
            "TEXCOORD_0": 3
          },
          "indices": 4,
          "material": 0,
          "mode": 4
        }
      ]
    }
  ],
  "nodes": [
    {
      "children": [
        1
      ],
      "matrix": [
        0.9999717473983765,
        0.007517168764024973,
        7.327490311581808e-05,
        0.0,
        0.00011192599777132273,
        -0.005141416098922269,
        -0.9999867677688599,
        0.0,
        -0.007516692392528057,
        0.9999585151672363,
        -0.005142112262546794,
        0.0,
        0.0067140934988856316,
        0.0014094639336690296,
        0.004609967116266489,
        1.0
      ],
      "name": "Sketchfab_model"
    },
    {
      "children": [
        2
      ],
      "name": "Rodin_Thinker.obj.cleaner.materialmerger.gles"
    },
    {
      "mesh": 0,
      "name": "Object_2"
    }
  ],
  "samplers": [
    {
      "magFilter": 9729,
      "minFilter": 9987,
      "wrapS": 10497,
      "wrapT": 10497
    }
  ],
  "scene": 0,
  "scenes": [
    {
      "name": "Sketchfab_Scene",
      "nodes": [
        0
      ]
    }
  ],
  "textures": [
    {
      "sampler": 0,
      "source": 0
    },
    {
      "sampler": 0,
      "source": 1
    },
    {
      "sampler": 0,
      "source": 2
    }
  ]
}
